# xmcd
#
# Track frame offsets: 
#        150
#        16471
#        34818
#        46242
#        62966
#        79712
#        93265
#        112431
#        130580
#        154460
#        171102
#        190304
#        207132
#        222933
#        236045
#        251784
#        269230
#        293289
#        305023
#
# Disc length: 4245 seconds
#
# Revision: 1
# Processed by: cddbd v1.5.2PL0 Copyright (c) Steve Scherf et al.
# Submitted via: ExactAudioCopy v1.3
#
DISCID=1e109313
DTITLE=Jads e Jadson - Jads e Jadson ao vivo
DYEAR=2007
DGENRE=sertanejo
TTITLE0=Amores vem em vão
TTITLE1=Minuto de fragilidade
TTITLE2=Desabafo de paixão
TTITLE3=Frasco de perfume
TTITLE4=Cara na porta
TTITLE5=Amor amigo
TTITLE6=Ando falando sozinho
TTITLE7=Tombos de amor
TTITLE8=Pourri de batidão, Terra de violeiro, terra de violeiro,lugar 
TTITLE8=abafado,vou tomar um pingao
TTITLE9=Diga que valeu
TTITLE10=Enquanto o sol brilhar (amor sem fim)
TTITLE11=Dom brasileiro
TTITLE12=Vide vida Marvada
TTITLE13=Cada um com seus problemas
TTITLE14=Com todos menos comigo
TTITLE15=Foi por saudade
TTITLE16=Coração idiota
TTITLE17=Traz de volta a minha vida
TTITLE18=Pout pourri de viola, sangue novo, mineiro de monte belo,gost
TTITLE18=o e desgosto
EXTD=
EXTT0=
EXTT1=
EXTT2=
EXTT3=
EXTT4=
EXTT5=
EXTT6=
EXTT7=
EXTT8=
EXTT9=
EXTT10=
EXTT11=
EXTT12=
EXTT13=
EXTT14=
EXTT15=
EXTT16=
EXTT17=
EXTT18=
PLAYORDER=
